<svg width="20" height="20" viewBox="0 0 20 20" fill="none" xmlns="http://www.w3.org/2000/svg">
<g clip-path="url(#clip0_2728_150)">
<path d="M14.1667 1.6665H5.83341C3.53223 1.6665 1.66675 3.53198 1.66675 5.83317V14.1665C1.66675 16.4677 3.53223 18.3332 5.83341 18.3332H14.1667C16.4679 18.3332 18.3334 16.4677 18.3334 14.1665V5.83317C18.3334 3.53198 16.4679 1.6665 14.1667 1.6665Z" stroke="#080808" stroke-width="1.99832" stroke-linecap="round" stroke-linejoin="round"/>
<path d="M13.333 9.47525C13.4359 10.1688 13.3174 10.8771 12.9945 11.4994C12.6716 12.1218 12.1606 12.6264 11.5344 12.9416C10.9081 13.2569 10.1984 13.3666 9.50616 13.2552C8.81395 13.1438 8.17448 12.817 7.67871 12.3212C7.18294 11.8255 6.85612 11.186 6.74473 10.4938C6.63334 9.80154 6.74306 9.09183 7.05828 8.46556C7.3735 7.8393 7.87816 7.32837 8.5005 7.00545C9.12283 6.68254 9.83114 6.56407 10.5247 6.66692C11.2321 6.77182 11.8871 7.10147 12.3928 7.60717C12.8985 8.11288 13.2281 8.76782 13.333 9.47525Z" stroke="#080808" stroke-width="1.99832" stroke-linecap="round" stroke-linejoin="round"/>
<path d="M14.5833 5.4165H14.5916" stroke="#080808" stroke-width="1.99832" stroke-linecap="round" stroke-linejoin="round"/>
</g>
<defs>
<clipPath id="clip0_2728_150">
<rect width="20" height="20" fill="white"/>
</clipPath>
</defs>
</svg>
