<svg width="27" height="26" viewBox="0 0 27 26" fill="none" xmlns="http://www.w3.org/2000/svg">
<path d="M22.029 7.60868C22.4339 8.31002 22.3797 9.14514 21.8868 9.78791L11.0665 23.9078C10.6202 24.4901 9.88545 24.7869 9.13412 24.6427C8.39837 24.5012 7.815 23.9649 7.61256 23.2435L6.01151 17.5453L5.84476 16.9527L5.41485 16.5119L1.28062 12.2763C0.757146 11.7403 0.584367 10.9669 0.829698 10.259C1.0725 9.5592 1.68148 9.05141 2.43231 8.95301L20.0707 6.64224C20.8737 6.53681 21.6241 6.90736 22.029 7.60868Z" fill="black"/>
<path d="M6.01149 17.5455L7.61251 23.2437C7.81495 23.9651 8.3983 24.5014 9.13407 24.6429C9.88542 24.7872 10.6202 24.4903 11.0664 23.908L21.8868 9.78812C22.3796 9.14535 22.4339 8.31023 22.029 7.60889L5.84475 16.9529L6.01149 17.5455Z" fill="black"/>
<path d="M12.4309 13.1502C12.5955 13.4354 12.4981 13.8003 12.2125 13.9652L6.01169 17.5453L5.84495 16.9526L5.41504 16.5118L11.6158 12.9318C11.9014 12.767 12.2662 12.865 12.4309 13.1502Z" fill="#D0BCFF"/>
<path d="M6.01171 17.5454L12.2125 13.9654C12.4981 13.8005 12.5956 13.4356 12.4309 13.1503L5.84496 16.9527L6.01171 17.5454Z" fill="#D0BCFF"/>
</svg>
